<?xml version="1.0" encoding="UTF-8"?>
<!--
  Flag: AC - Ascension Island
  Source: FlagHub (fork of FlagKit by Bowtie)
  Upstream: https://github.com/madebybowtie/FlagKit
  License: MIT
-->
<svg width="21px" height="15px" viewBox="0 0 21 15" version="1.1" xmlns="http://www.w3.org/2000/svg" xmlns:xlink="http://www.w3.org/1999/xlink">
    <title>AC</title>
    <desc>British blue ensign defaced with the Ascension Island coat of arms.</desc>
    <defs>
        <linearGradient x1="50%" y1="0%" x2="50%" y2="100%" id="AC_linearGradient-1">
            <stop stop-color="#012169" offset="0%"></stop>
            <stop stop-color="#001A52" offset="100%"></stop>
        </linearGradient>
        <linearGradient x1="50%" y1="0%" x2="50%" y2="100%" id="AC_linearGradient-2">
            <stop stop-color="#FFFFFF" offset="0%"></stop>
            <stop stop-color="#F0F0F0" offset="100%"></stop>
        </linearGradient>
        <linearGradient x1="50%" y1="0%" x2="50%" y2="100%" id="AC_linearGradient-3">
            <stop stop-color="#C8102E" offset="0%"></stop>
            <stop stop-color="#A50924" offset="100%"></stop>
        </linearGradient>
        <clipPath id="AC_CantonClip">
            <rect x="0" y="0" width="10.5" height="7.5"></rect>
        </clipPath>
    </defs>
    <g id="AC_Symbols" stroke="none" stroke-width="1" fill="none" fill-rule="evenodd">
        <g id="AC_AC">
            <rect id="AC_FlagBackground" fill="url(#AC_linearGradient-1)" x="0" y="0" width="21" height="15"></rect>
            <g id="AC_UnionJack" clip-path="url(#AC_CantonClip)">
                <rect x="0" y="0" width="10.5" height="7.5" fill="url(#AC_linearGradient-1)"></rect>
                <line x1="0" y1="0" x2="10.5" y2="7.5" stroke="url(#AC_linearGradient-2)" stroke-width="1.4"></line>
                <line x1="10.5" y1="0" x2="0" y2="7.5" stroke="url(#AC_linearGradient-2)" stroke-width="1.4"></line>
                <line x1="0" y1="0" x2="10.5" y2="7.5" stroke="url(#AC_linearGradient-3)" stroke-width="0.45"></line>
                <line x1="10.5" y1="0" x2="0" y2="7.5" stroke="url(#AC_linearGradient-3)" stroke-width="0.45"></line>
                <rect x="0" y="3.05" width="10.5" height="1.4" fill="url(#AC_linearGradient-2)"></rect>
                <rect x="4.55" y="0" width="1.4" height="7.5" fill="url(#AC_linearGradient-2)"></rect>
                <rect x="0" y="3.55" width="10.5" height="0.4" fill="url(#AC_linearGradient-3)"></rect>
                <rect x="4.85" y="0" width="0.4" height="7.5" fill="url(#AC_linearGradient-3)"></rect>
            </g>
            <path id="AC_Shield" d="M 14.7,5 L 16.8,5 L 16.8,8.2 Q 16.8,9.7 15.75,10.2 Q 14.7,9.7 14.7,8.2 Z" fill="url(#AC_linearGradient-2)" stroke="#5A4020" stroke-width="0.12"></path>
            <ellipse id="AC_TurtleBody" cx="15.75" cy="7.3" rx="0.55" ry="0.4" fill="#3C7A2E"></ellipse>
            <circle id="AC_TurtleHead" cx="15.75" cy="6.65" r="0.18" fill="#3C7A2E"></circle>
            <polygon id="AC_TurtleFL" points="15.15,7.0 14.95,7.15 15.20,7.30" fill="#3C7A2E"></polygon>
            <polygon id="AC_TurtleFR" points="16.35,7.0 16.55,7.15 16.30,7.30" fill="#3C7A2E"></polygon>
            <polygon id="AC_TurtleBL" points="15.30,7.55 15.05,7.75 15.40,7.75" fill="#3C7A2E"></polygon>
            <polygon id="AC_TurtleBR" points="16.20,7.55 16.45,7.75 16.10,7.75" fill="#3C7A2E"></polygon>
            <path id="AC_TurtleTail" d="M 15.75,7.7 L 15.65,7.95 L 15.85,7.95 Z" fill="#3C7A2E"></path>
            <path id="AC_Bird" d="M 15.30,8.55 Q 15.75,8.30 16.20,8.55 L 16.10,8.65 L 15.85,8.60 L 15.85,9.10 L 15.65,9.10 L 15.65,8.60 L 15.40,8.65 Z" fill="#1A1A1A"></path>
            <polygon id="AC_BirdTail" points="15.30,8.55 14.95,9.30 15.55,8.95" fill="url(#AC_linearGradient-3)"></polygon>
        </g>
    </g>
</svg>
