<?xml version="1.0" encoding="UTF-8"?>
<!--
  Flag: AL - Albania
  Source: FlagKit by Bowtie (https://github.com/madebybowtie/FlagKit)
  License: MIT
-->
<svg width="21px" height="15px" viewBox="0 0 21 15" version="1.1" xmlns="http://www.w3.org/2000/svg" xmlns:xlink="http://www.w3.org/1999/xlink">
    <!-- Generator: sketchtool 46 (44423) - http://www.bohemiancoding.com/sketch -->
    <title>AL</title>
    <desc>Created with sketchtool.</desc>
    <defs>
        <linearGradient x1="50%" y1="0%" x2="50%" y2="100%" id="AL_linearGradient-1">
            <stop stop-color="#FFFFFF" offset="0%"></stop>
            <stop stop-color="#F0F0F0" offset="100%"></stop>
        </linearGradient>
        <linearGradient x1="50%" y1="0%" x2="50%" y2="100%" id="AL_linearGradient-2">
            <stop stop-color="#D81E2A" offset="0%"></stop>
            <stop stop-color="#BE0E22" offset="100%"></stop>
        </linearGradient>
        <linearGradient x1="50%" y1="0%" x2="50%" y2="100%" id="AL_linearGradient-3">
            <stop stop-color="#262626" offset="0%"></stop>
            <stop stop-color="#0D0D0D" offset="100%"></stop>
        </linearGradient>
    </defs>
    <g id="AL_Symbols" stroke="none" stroke-width="1" fill="none" fill-rule="evenodd">
        <g id="AL_AL">
            <rect id="AL_FlagBackground" fill="url(#AL_linearGradient-1)" x="0" y="0" width="21" height="15"></rect>
            <rect id="AL_Mask" fill="url(#AL_linearGradient-2)" x="0" y="0" width="21" height="15"></rect>
            <g id="AL_Eagle" fill="url(#AL_linearGradient-3)">
                <path d="M 9.7,5.6 C 7.4,5.3 5.0,5.7 3.6,6.8 C 3.0,7.3 2.9,7.9 3.3,8.3 C 3.5,8.5 3.9,8.6 4.3,8.4 L 4.7,7.7 L 4.9,8.5 L 5.4,7.8 L 5.6,8.6 L 6.1,7.9 L 6.3,8.7 L 6.8,8.0 L 7.0,8.8 L 7.5,8.1 L 7.7,8.9 L 8.2,8.2 L 8.4,9.0 L 8.9,8.3 L 9.1,9.0 L 9.5,8.4 L 9.5,7.3 Z"></path>
                <path d="M 11.3,5.6 C 13.6,5.3 16.0,5.7 17.4,6.8 C 18.0,7.3 18.1,7.9 17.7,8.3 C 17.5,8.5 17.1,8.6 16.7,8.4 L 16.3,7.7 L 16.1,8.5 L 15.6,7.8 L 15.4,8.6 L 14.9,7.9 L 14.7,8.7 L 14.2,8.0 L 14.0,8.8 L 13.5,8.1 L 13.3,8.9 L 12.8,8.2 L 12.6,9.0 L 12.1,8.3 L 11.9,9.0 L 11.5,8.4 L 11.5,7.3 Z"></path>
                <path d="M 9.8,5.7 L 10.1,5.9 L 10.4,6.4 L 10.5,7.2 L 10.5,8.0 L 10.3,8.6 L 10.5,9.3 L 10.4,9.9 L 10.5,10.2 L 10.6,9.9 L 10.5,9.3 L 10.7,8.6 L 10.5,8.0 L 10.5,7.2 L 10.6,6.4 L 10.9,5.9 L 11.2,5.7 L 10.9,5.6 L 10.5,5.55 L 10.1,5.6 Z"></path>
                <path d="M 10.05,5.85 Q 9.8,5.55 9.4,5.30 Q 8.7,4.85 7.8,4.65 Q 6.9,4.45 6.1,4.65 Q 5.5,4.8 5.2,5.05 L 5.9,5.0 L 5.4,5.25 L 5.0,5.55 L 4.8,5.85 L 5.1,5.85 L 5.4,5.65 L 5.7,5.85 L 6.0,5.7 L 6.4,5.85 L 6.9,5.75 L 7.5,5.65 L 8.3,5.6 L 9.2,5.65 Z"></path>
                <path d="M 10.95,5.85 Q 11.2,5.55 11.6,5.30 Q 12.3,4.85 13.2,4.65 Q 14.1,4.45 14.9,4.65 Q 15.5,4.8 15.8,5.05 L 15.1,5.0 L 15.6,5.25 L 16.0,5.55 L 16.2,5.85 L 15.9,5.85 L 15.6,5.65 L 15.3,5.85 L 15.0,5.7 L 14.6,5.85 L 14.1,5.75 L 13.5,5.65 L 12.7,5.6 L 11.8,5.65 Z"></path>
                <ellipse cx="6.5" cy="5.05" rx="0.08" ry="0.08" fill="url(#AL_linearGradient-2)"></ellipse>
                <ellipse cx="14.5" cy="5.05" rx="0.08" ry="0.08" fill="url(#AL_linearGradient-2)"></ellipse>
                <path d="M 9.7,9.7 L 9.0,11.7 L 9.7,11.0 L 9.55,12.0 L 10.05,11.1 L 10.20,12.2 L 10.50,11.2 L 10.80,12.2 L 10.95,11.1 L 11.45,12.0 L 11.30,11.0 L 12.00,11.7 L 11.30,9.7 Z"></path>
                <path d="M 9.95,10.0 L 9.85,10.5 L 9.80,11.1 L 9.65,11.20 L 9.85,11.25 L 9.65,11.40 L 9.85,11.40 L 9.65,11.55 L 9.95,11.55 L 10.10,10.5 Z"></path>
                <path d="M 11.05,10.0 L 11.15,10.5 L 11.20,11.1 L 11.35,11.20 L 11.15,11.25 L 11.35,11.40 L 11.15,11.40 L 11.35,11.55 L 11.05,11.55 L 10.90,10.5 Z"></path>
            </g>
        </g>
    </g>
</svg>