<?xml version="1.0" encoding="UTF-8"?>
<!--
  Flag: AL - Albania
  Source: FlagKit by Bowtie (https://github.com/madebybowtie/FlagKit)
  License: MIT
-->
<svg width="21px" height="15px" viewBox="0 0 21 15" version="1.1" xmlns="http://www.w3.org/2000/svg" xmlns:xlink="http://www.w3.org/1999/xlink">
    <!-- Generator: sketchtool 46 (44423) - http://www.bohemiancoding.com/sketch -->
    <title>AL</title>
    <desc>Created with sketchtool.</desc>
    <defs>
        <linearGradient x1="50%" y1="0%" x2="50%" y2="100%" id="AL_linearGradient-1">
            <stop stop-color="#FFFFFF" offset="0%"></stop>
            <stop stop-color="#F0F0F0" offset="100%"></stop>
        </linearGradient>
        <linearGradient x1="50%" y1="0%" x2="50%" y2="100%" id="AL_linearGradient-2">
            <stop stop-color="#D81E2A" offset="0%"></stop>
            <stop stop-color="#BE0E22" offset="100%"></stop>
        </linearGradient>
        <linearGradient x1="50%" y1="0%" x2="50%" y2="100%" id="AL_linearGradient-3">
            <stop stop-color="#262626" offset="0%"></stop>
            <stop stop-color="#0D0D0D" offset="100%"></stop>
        </linearGradient>
    </defs>
    <g id="AL_Symbols" stroke="none" stroke-width="1" fill="none" fill-rule="evenodd">
        <g id="AL_AL">
            <rect id="AL_FlagBackground" fill="url(#AL_linearGradient-1)" x="0" y="0" width="21" height="15"></rect>
            <rect id="AL_Mask" fill="url(#AL_linearGradient-2)" x="0" y="0" width="21" height="15"></rect>
            <g id="AL_Eagle" fill="url(#AL_linearGradient-3)">
                <path d="M 9.7,5.6 L 11.3,5.6 L 11.5,7 L 11.2,8 L 11.4,9.5 L 10.5,10 L 9.6,9.5 L 9.8,8 L 9.5,7 Z"></path>
                <path d="M 9.7,5.7 C 8,5.5 6,5.8 5,6.6 C 4.5,7 4.2,7.8 4.8,8.2 L 5.3,7.9 L 5.5,8.4 L 6,8.0 L 6.2,8.5 L 6.7,8.1 L 6.9,8.6 L 7.4,8.2 L 7.6,8.7 L 8.1,8.3 L 8.3,8.8 L 8.8,8.4 L 9.0,8.9 L 9.4,8.5 L 9.4,8 L 9.5,6.5 Z"></path>
                <path d="M 11.3,5.7 C 13,5.5 15,5.8 16,6.6 C 16.5,7 16.8,7.8 16.2,8.2 L 15.7,7.9 L 15.5,8.4 L 15,8.0 L 14.8,8.5 L 14.3,8.1 L 14.1,8.6 L 13.6,8.2 L 13.4,8.7 L 12.9,8.3 L 12.7,8.8 L 12.2,8.4 L 12.0,8.9 L 11.6,8.5 L 11.6,8 L 11.5,6.5 Z"></path>
                <path d="M 9.5,5.0 Q 9.0,4.4 8.3,4.4 Q 7.5,4.4 7.0,4.8 Q 6.5,5.0 6.2,4.9 L 6.9,5.1 L 6.4,5.3 Q 7.0,5.4 7.5,5.3 Q 8.5,5.3 9.4,5.4 Z"></path>
                <path d="M 11.5,5.0 Q 12.0,4.4 12.7,4.4 Q 13.5,4.4 14.0,4.8 Q 14.5,5.0 14.8,4.9 L 14.1,5.1 L 14.6,5.3 Q 14.0,5.4 13.5,5.3 Q 12.5,5.3 11.6,5.4 Z"></path>
                <path d="M 9.7,10 L 9.4,11.6 L 9.9,11.2 L 10.0,12.0 L 10.3,11.3 L 10.5,12.1 L 10.7,11.3 L 11.0,12.0 L 11.1,11.2 L 11.6,11.6 L 11.3,10 Z"></path>
            </g>
        </g>
    </g>
</svg>