<?xml version="1.0" encoding="UTF-8"?>
<!--
  Flag: AL - Albania
  Source: FlagKit by Bowtie (https://github.com/madebybowtie/FlagKit)
  License: MIT
-->
<svg width="21px" height="15px" viewBox="0 0 21 15" version="1.1" xmlns="http://www.w3.org/2000/svg" xmlns:xlink="http://www.w3.org/1999/xlink">
    <!-- Generator: sketchtool 46 (44423) - http://www.bohemiancoding.com/sketch -->
    <title>AL</title>
    <desc>Created with sketchtool.</desc>
    <defs>
        <linearGradient x1="50%" y1="0%" x2="50%" y2="100%" id="AL_linearGradient-1">
            <stop stop-color="#FFFFFF" offset="0%"></stop>
            <stop stop-color="#F0F0F0" offset="100%"></stop>
        </linearGradient>
        <linearGradient x1="50%" y1="0%" x2="50%" y2="100%" id="AL_linearGradient-2">
            <stop stop-color="#D81E2A" offset="0%"></stop>
            <stop stop-color="#BE0E22" offset="100%"></stop>
        </linearGradient>
        <linearGradient x1="50%" y1="0%" x2="50%" y2="100%" id="AL_linearGradient-3">
            <stop stop-color="#262626" offset="0%"></stop>
            <stop stop-color="#0D0D0D" offset="100%"></stop>
        </linearGradient>
    </defs>
    <g id="AL_Symbols" stroke="none" stroke-width="1" fill="none" fill-rule="evenodd">
        <g id="AL_AL">
            <rect id="AL_FlagBackground" fill="url(#AL_linearGradient-1)" x="0" y="0" width="21" height="15"></rect>
            <rect id="AL_Mask" fill="url(#AL_linearGradient-2)" x="0" y="0" width="21" height="15"></rect>
            <g id="AL_Eagle" fill="url(#AL_linearGradient-3)">
                <ellipse cx="10.5" cy="7.8" rx="1.1" ry="2.6"></ellipse>
                <polygon points="9.4,5.8 5.5,6.8 5,9 8.8,8.2 9.4,9.4"></polygon>
                <polygon points="11.6,5.8 15.5,6.8 16,9 12.2,8.2 11.6,9.4"></polygon>
                <circle cx="9" cy="4.7" r="0.7"></circle>
                <polygon points="8.3,4.5 7.5,4.4 8.3,5"></polygon>
                <circle cx="12" cy="4.7" r="0.7"></circle>
                <polygon points="12.7,4.5 13.5,4.4 12.7,5"></polygon>
                <polygon points="9.7,9.8 10.5,12 11.3,9.8"></polygon>
            </g>
        </g>
    </g>
</svg>