<?xml version="1.0" encoding="UTF-8"?>
<!--
  Flag: CN - China
  Source: FlagKit by Bowtie (https://github.com/madebybowtie/FlagKit)
  License: MIT
-->
<svg width="21px" height="15px" viewBox="0 0 21 15" version="1.1" xmlns="http://www.w3.org/2000/svg" xmlns:xlink="http://www.w3.org/1999/xlink">
    <!-- Generator: sketchtool 46 (44423) - http://www.bohemiancoding.com/sketch -->
    <title>CN</title>
    <desc>Created with sketchtool.</desc>
    <defs>
        <linearGradient x1="50%" y1="0%" x2="50%" y2="100%" id="CN_linearGradient-1">
            <stop stop-color="#FFFFFF" offset="0%"></stop>
            <stop stop-color="#F0F0F0" offset="100%"></stop>
        </linearGradient>
        <linearGradient x1="50%" y1="0%" x2="50%" y2="100%" id="CN_linearGradient-2">
            <stop stop-color="#F1361D" offset="0%"></stop>
            <stop stop-color="#DF2910" offset="100%"></stop>
        </linearGradient>
        <linearGradient x1="37.0590477%" y1="1.70370869%" x2="62.9409523%" y2="98.2962913%" id="CN_linearGradient-3">
            <stop stop-color="#FFDC42" offset="0%"></stop>
            <stop stop-color="#FDD217" offset="100%"></stop>
        </linearGradient>
        <linearGradient x1="50%" y1="0%" x2="50%" y2="100%" id="CN_linearGradient-4">
            <stop stop-color="#FFDC42" offset="0%"></stop>
            <stop stop-color="#FDD217" offset="100%"></stop>
        </linearGradient>
    </defs>
    <g id="CN_Symbols" stroke="none" stroke-width="1" fill="none" fill-rule="evenodd">
        <g id="CN_CN">
            <rect id="CN_FlagBackground" fill="url(#CN_linearGradient-1)" x="0" y="0" width="21" height="15"></rect>
            <rect id="CN_Mask" fill="url(#CN_linearGradient-2)" x="0" y="0" width="21" height="15"></rect>
            <polygon id="CN_BigStar" fill="url(#CN_linearGradient-4)" points="3.5000,1.4000 3.9715,2.8511 5.4972,2.8511 4.2629,3.7479 4.7343,5.1989 3.5000,4.3021 2.2657,5.1989 2.7371,3.7479 1.5028,2.8511 3.0285,2.8511"></polygon>
            <polygon id="CN_SmallStar-1" fill="url(#CN_linearGradient-3)" points="6.3998,1.7601 6.7337,1.3765 6.4720,0.9404 6.9400,1.1394 7.2739,0.7558 7.2293,1.2624 7.6973,1.4615 7.2017,1.5755 7.1570,2.0822 6.8954,1.6461"></polygon>
            <polygon id="CN_SmallStar-2" fill="url(#CN_linearGradient-3)" points="7.7070,2.8990 8.1636,2.6750 8.0917,2.1715 8.4458,2.5366 8.9024,2.3126 8.6647,2.7622 9.0188,3.1272 8.5178,3.0400 8.2800,3.4896 8.2081,2.9862"></polygon>
            <polygon id="CN_SmallStar-3" fill="url(#CN_linearGradient-3)" points="7.7269,4.7077 8.2352,4.6895 8.3749,4.2005 8.5493,4.6782 9.0576,4.6600 8.6571,4.9735 8.8315,5.4512 8.4096,5.1672 8.0091,5.4807 8.1488,4.9917"></polygon>
            <polygon id="CN_SmallStar-4" fill="url(#CN_linearGradient-3)" points="6.4534,5.8627 6.9293,6.0421 7.2470,5.6450 7.2234,6.1530 7.6992,6.3325 7.2088,6.4670 7.1852,6.9751 6.9057,6.5502 6.4152,6.6847 6.7329,6.2876"></polygon>
        </g>
    </g>
</svg>