<?xml version="1.0" encoding="UTF-8"?>
<!--
  Flag: DG - Diego Garcia (British Indian Ocean Territory)
  Source: FlagHub (fork of FlagKit by Bowtie)
  Upstream: https://github.com/madebybowtie/FlagKit
  License: MIT
-->
<svg width="21px" height="15px" viewBox="0 0 21 15" version="1.1" xmlns="http://www.w3.org/2000/svg" xmlns:xlink="http://www.w3.org/1999/xlink">
    <title>DG</title>
    <desc>Flag of the British Indian Ocean Territory - wavy blue/white stripes representing the Indian Ocean, Union Jack canton, palm tree and St Edward's Crown on the fly.</desc>
    <defs>
        <linearGradient x1="50%" y1="0%" x2="50%" y2="100%" id="DG_linearGradient-1">
            <stop stop-color="#FFFFFF" offset="0%"></stop>
            <stop stop-color="#F0F0F0" offset="100%"></stop>
        </linearGradient>
        <linearGradient x1="50%" y1="0%" x2="50%" y2="100%" id="DG_linearGradient-2">
            <stop stop-color="#2E73B5" offset="0%"></stop>
            <stop stop-color="#1F5A99" offset="100%"></stop>
        </linearGradient>
        <linearGradient x1="50%" y1="0%" x2="50%" y2="100%" id="DG_linearGradient-3">
            <stop stop-color="#012169" offset="0%"></stop>
            <stop stop-color="#001A52" offset="100%"></stop>
        </linearGradient>
        <linearGradient x1="50%" y1="0%" x2="50%" y2="100%" id="DG_linearGradient-4">
            <stop stop-color="#C8102E" offset="0%"></stop>
            <stop stop-color="#A50924" offset="100%"></stop>
        </linearGradient>
        <linearGradient x1="50%" y1="0%" x2="50%" y2="100%" id="DG_linearGradient-5">
            <stop stop-color="#0A8038" offset="0%"></stop>
            <stop stop-color="#067030" offset="100%"></stop>
        </linearGradient>
        <linearGradient x1="50%" y1="0%" x2="50%" y2="100%" id="DG_linearGradient-6">
            <stop stop-color="#FFD133" offset="0%"></stop>
            <stop stop-color="#E5B520" offset="100%"></stop>
        </linearGradient>
        <clipPath id="DG_CantonClip">
            <rect x="0" y="0" width="10.5" height="7.5"></rect>
        </clipPath>
    </defs>
    <g id="DG_Symbols" stroke="none" stroke-width="1" fill="none" fill-rule="evenodd">
        <g id="DG_DG">
            <rect id="DG_FlagBackground" fill="url(#DG_linearGradient-1)" x="0" y="0" width="21" height="15"></rect>
            <path id="DG_Wave1" fill="url(#DG_linearGradient-2)" d="M 0,0 L 21,0 L 21,2.5 Q 17.5,3 14,2.5 Q 10.5,2 7,2.5 Q 3.5,3 0,2.5 Z"></path>
            <path id="DG_Wave2" fill="url(#DG_linearGradient-2)" d="M 0,5 Q 3.5,5.5 7,5 Q 10.5,4.5 14,5 Q 17.5,5.5 21,5 L 21,7.5 Q 17.5,8 14,7.5 Q 10.5,7 7,7.5 Q 3.5,8 0,7.5 Z"></path>
            <path id="DG_Wave3" fill="url(#DG_linearGradient-2)" d="M 0,10 Q 3.5,10.5 7,10 Q 10.5,9.5 14,10 Q 17.5,10.5 21,10 L 21,12.5 Q 17.5,13 14,12.5 Q 10.5,12 7,12.5 Q 3.5,13 0,12.5 Z"></path>
            <g id="DG_UnionJack" clip-path="url(#DG_CantonClip)">
                <rect x="0" y="0" width="10.5" height="7.5" fill="url(#DG_linearGradient-3)"></rect>
                <line x1="0" y1="0" x2="10.5" y2="7.5" stroke="url(#DG_linearGradient-1)" stroke-width="1.4"></line>
                <line x1="10.5" y1="0" x2="0" y2="7.5" stroke="url(#DG_linearGradient-1)" stroke-width="1.4"></line>
                <line x1="0" y1="0" x2="10.5" y2="7.5" stroke="url(#DG_linearGradient-4)" stroke-width="0.45"></line>
                <line x1="10.5" y1="0" x2="0" y2="7.5" stroke="url(#DG_linearGradient-4)" stroke-width="0.45"></line>
                <rect x="0" y="3.05" width="10.5" height="1.4" fill="url(#DG_linearGradient-1)"></rect>
                <rect x="4.55" y="0" width="1.4" height="7.5" fill="url(#DG_linearGradient-1)"></rect>
                <rect x="0" y="3.55" width="10.5" height="0.4" fill="url(#DG_linearGradient-4)"></rect>
                <rect x="4.85" y="0" width="0.4" height="7.5" fill="url(#DG_linearGradient-4)"></rect>
            </g>
            <rect id="DG_PalmTrunk" x="15.55" y="7.5" width="0.4" height="3.8" fill="#5A3E20"></rect>
            <path id="DG_FrondL" d="M 15.75,7.5 Q 14.0,7.0 13.0,7.4 Q 14.0,7.8 15.75,8.2 Z" fill="url(#DG_linearGradient-5)"></path>
            <path id="DG_FrondR" d="M 15.75,7.5 Q 17.5,7.0 18.5,7.4 Q 17.5,7.8 15.75,8.2 Z" fill="url(#DG_linearGradient-5)"></path>
            <path id="DG_FrondUL" d="M 15.75,7.2 Q 14.2,6.0 13.4,5.6 Q 14.5,6.6 15.75,7.7 Z" fill="url(#DG_linearGradient-5)"></path>
            <path id="DG_FrondUR" d="M 15.75,7.2 Q 17.3,6.0 18.1,5.6 Q 17.0,6.6 15.75,7.7 Z" fill="url(#DG_linearGradient-5)"></path>
            <path id="DG_FrondTop" d="M 15.75,7.0 Q 15.5,5.7 15.4,5.0 Q 16.0,6.0 15.95,7.4 Z" fill="url(#DG_linearGradient-5)"></path>
            <ellipse id="DG_CocoL" cx="15.20" cy="7.6" rx="0.18" ry="0.15" fill="#5A3E20"></ellipse>
            <ellipse id="DG_CocoR" cx="16.30" cy="7.6" rx="0.18" ry="0.15" fill="#5A3E20"></ellipse>
            <rect id="DG_CrownBand" x="14.95" y="3.6" width="1.6" height="0.4" fill="url(#DG_linearGradient-6)"></rect>
            <polygon id="DG_CrownPoints" points="14.95,3.6 14.95,3.1 15.25,3.3 15.55,2.85 15.85,3.3 16.25,3.1 16.55,3.3 16.55,3.6" fill="url(#DG_linearGradient-6)"></polygon>
            <circle id="DG_CrownOrb" cx="15.55" cy="2.55" r="0.22" fill="url(#DG_linearGradient-6)"></circle>
            <path id="DG_CrownCross" d="M 15.50,2.0 L 15.60,2.0 L 15.60,2.3 L 15.85,2.3 L 15.85,2.4 L 15.60,2.4 L 15.60,2.65 L 15.50,2.65 L 15.50,2.4 L 15.25,2.4 L 15.25,2.3 L 15.50,2.3 Z" fill="url(#DG_linearGradient-6)"></path>
        </g>
    </g>
</svg>
