<?xml version="1.0" encoding="UTF-8"?>
<!--
  Flag: IC - Canary Islands
  Source: FlagKit by Bowtie (https://github.com/madebybowtie/FlagKit)
  License: MIT
-->
<svg width="21px" height="15px" viewBox="0 0 21 15" version="1.1" xmlns="http://www.w3.org/2000/svg" xmlns:xlink="http://www.w3.org/1999/xlink">
    <title>IC</title>
    <desc>Flag of the Canary Islands - white at hoist, blue at fly, with stylised coat of arms centered.</desc>
    <defs>
        <linearGradient x1="50%" y1="0%" x2="50%" y2="100%" id="IC_linearGradient-1">
            <stop stop-color="#FFFFFF" offset="0%"></stop>
            <stop stop-color="#F0F0F0" offset="100%"></stop>
        </linearGradient>
        <linearGradient x1="50%" y1="0%" x2="50%" y2="100%" id="IC_linearGradient-2">
            <stop stop-color="#0079C0" offset="0%"></stop>
            <stop stop-color="#0067A6" offset="100%"></stop>
        </linearGradient>
        <linearGradient x1="50%" y1="0%" x2="50%" y2="100%" id="IC_linearGradient-3">
            <stop stop-color="#FFD133" offset="0%"></stop>
            <stop stop-color="#FFC500" offset="100%"></stop>
        </linearGradient>
    </defs>
    <g id="IC_Symbols" stroke="none" stroke-width="1" fill="none" fill-rule="evenodd">
        <g id="IC_IC">
            <rect id="IC_FlagBackground" fill="url(#IC_linearGradient-1)" x="0" y="0" width="21" height="15"></rect>
            <rect id="IC_BlueFly" fill="url(#IC_linearGradient-2)" x="10.5" y="0" width="10.5" height="15"></rect>
            <path id="IC_ShieldOutline" d="M 8.7,5 L 12.3,5 L 12.3,8.5 Q 12.3,10.3 10.5,10.9 Q 8.7,10.3 8.7,8.5 Z" fill="url(#IC_linearGradient-2)" stroke="url(#IC_linearGradient-3)" stroke-width="0.2"></path>
            <circle id="IC_Isle1" cx="9.6" cy="6.2" r="0.22" fill="url(#IC_linearGradient-1)"></circle>
            <circle id="IC_Isle2" cx="10.5" cy="6.0" r="0.22" fill="url(#IC_linearGradient-1)"></circle>
            <circle id="IC_Isle3" cx="11.4" cy="6.2" r="0.22" fill="url(#IC_linearGradient-1)"></circle>
            <circle id="IC_Isle4" cx="9.4" cy="7.2" r="0.22" fill="url(#IC_linearGradient-1)"></circle>
            <circle id="IC_Isle5" cx="10.5" cy="7.0" r="0.22" fill="url(#IC_linearGradient-1)"></circle>
            <circle id="IC_Isle6" cx="11.6" cy="7.2" r="0.22" fill="url(#IC_linearGradient-1)"></circle>
            <circle id="IC_Isle7" cx="10.5" cy="8.0" r="0.22" fill="url(#IC_linearGradient-1)"></circle>
            <polygon id="IC_Crown" points="9.2,4.6 9.5,4.2 9.7,4.6 10.1,4.0 10.5,4.5 10.9,4.0 11.3,4.6 11.5,4.2 11.8,4.6 11.8,4.9 9.2,4.9" fill="url(#IC_linearGradient-3)"></polygon>
        </g>
    </g>
</svg>
