<?xml version="1.0" encoding="UTF-8"?>
<!--
  Flag: MD - Moldova
  Source: FlagKit by Bowtie (https://github.com/madebybowtie/FlagKit)
  License: MIT
-->
<svg width="21px" height="15px" viewBox="0 0 21 15" version="1.1" xmlns="http://www.w3.org/2000/svg" xmlns:xlink="http://www.w3.org/1999/xlink">
    <!-- Generator: sketchtool 46 (44423) - http://www.bohemiancoding.com/sketch -->
    <title>MD</title>
    <desc>Created with sketchtool.</desc>
    <defs>
        <linearGradient x1="50%" y1="0%" x2="50%" y2="100%" id="MD_linearGradient-1">
            <stop stop-color="#FFFFFF" offset="0%"></stop>
            <stop stop-color="#F0F0F0" offset="100%"></stop>
        </linearGradient>
        <linearGradient x1="50%" y1="0%" x2="50%" y2="100%" id="MD_linearGradient-2">
            <stop stop-color="#EB1C43" offset="0%"></stop>
            <stop stop-color="#CA1134" offset="100%"></stop>
        </linearGradient>
        <linearGradient x1="50%" y1="0%" x2="50%" y2="100%" id="MD_linearGradient-3">
            <stop stop-color="#115BCB" offset="0%"></stop>
            <stop stop-color="#094AAC" offset="100%"></stop>
        </linearGradient>
        <linearGradient x1="50%" y1="0%" x2="50%" y2="100%" id="MD_linearGradient-4">
            <stop stop-color="#FFD953" offset="0%"></stop>
            <stop stop-color="#FFD130" offset="100%"></stop>
        </linearGradient>
        <rect id="MD_path-5" x="7" y="0" width="7" height="15"></rect>
        <filter x="-10.7%" y="-5.0%" width="121.4%" height="110.0%" filterUnits="objectBoundingBox" id="MD_filter-6">
            <feMorphology radius="0.25" operator="dilate" in="SourceAlpha" result="shadowSpreadOuter1"></feMorphology>
            <feOffset dx="0" dy="0" in="shadowSpreadOuter1" result="shadowOffsetOuter1"></feOffset>
            <feColorMatrix values="0 0 0 0 0   0 0 0 0 0   0 0 0 0 0  0 0 0 0.06 0" type="matrix" in="shadowOffsetOuter1"></feColorMatrix>
        </filter>
    </defs>
    <g id="MD_Symbols" stroke="none" stroke-width="1" fill="none" fill-rule="evenodd">
        <g id="MD_MD">
            <rect id="MD_FlagBackground" fill="url(#MD_linearGradient-1)" x="0" y="0" width="21" height="15"></rect>
            <rect id="MD_Mask" fill="url(#MD_linearGradient-2)" x="10" y="0" width="11" height="15"></rect>
            <rect id="MD_Rectangle-2" fill="url(#MD_linearGradient-3)" x="0" y="0" width="7" height="15"></rect>
            <g id="MD_Rectangle-2-Copy">
                <use fill="black" fill-opacity="1" filter="url(#MD_filter-6)" xlink:href="#MD_path-5"></use>
                <use fill="url(#MD_linearGradient-4)" fill-rule="evenodd" xlink:href="#MD_path-5"></use>
            </g>
            <g id="MD_CoatOfArms">
                <path d="M 9.3,5.6 C 8.4,5.3 7.6,5.2 7.0,5.5 C 6.6,5.7 6.5,6.0 6.7,6.3 L 7.0,6.0 L 7.1,6.5 L 7.4,6.2 L 7.5,6.7 L 7.0,6.9 L 6.8,7.4 L 7.3,7.1 L 7.4,7.6 L 7.7,7.3 L 7.8,7.8 L 7.3,8.0 L 7.0,8.5 L 7.6,8.2 L 7.7,8.7 L 8.1,8.4 L 8.3,8.9 L 8.6,8.5 L 8.8,9.0 L 9.2,8.5 L 9.3,7.5 Z" fill="url(#MD_linearGradient-4)"></path>
                <path d="M 11.7,5.6 C 12.6,5.3 13.4,5.2 14.0,5.5 C 14.4,5.7 14.5,6.0 14.3,6.3 L 14.0,6.0 L 13.9,6.5 L 13.6,6.2 L 13.5,6.7 L 14.0,6.9 L 14.2,7.4 L 13.7,7.1 L 13.6,7.6 L 13.3,7.3 L 13.2,7.8 L 13.7,8.0 L 14.0,8.5 L 13.4,8.2 L 13.3,8.7 L 12.9,8.4 L 12.7,8.9 L 12.4,8.5 L 12.2,9.0 L 11.8,8.5 L 11.7,7.5 Z" fill="url(#MD_linearGradient-4)"></path>
                <path d="M 8.8,9.0 L 8.4,9.6 L 8.2,10.1 L 8.0,9.7 L 7.95,10.2 L 7.75,9.9 L 7.85,10.4 L 7.6,10.2 L 7.65,10.7 L 7.55,11.1 L 7.45,11.5 L 7.6,11.55 L 7.8,11.0 L 7.95,10.5 L 8.1,10.05 L 8.35,9.85 L 8.55,9.5 L 8.85,9.25 Z" fill="url(#MD_linearGradient-4)"></path>
                <path d="M 12.2,9.0 L 12.6,9.6 L 12.8,10.1 L 13.0,9.7 L 13.05,10.2 L 13.25,9.9 L 13.15,10.4 L 13.4,10.2 L 13.35,10.7 L 13.45,11.1 L 13.55,11.5 L 13.4,11.55 L 13.2,11.0 L 13.05,10.5 L 12.9,10.05 L 12.65,9.85 L 12.45,9.5 L 12.15,9.25 Z" fill="url(#MD_linearGradient-4)"></path>
                <circle cx="10.5" cy="4.55" r="0.42" fill="url(#MD_linearGradient-4)"></circle>
                <polygon points="10.35,4.7 10.65,4.7 10.5,5.1" fill="url(#MD_linearGradient-4)"></polygon>
                <rect x="10.4" y="3.3" width="0.2" height="0.85" fill="url(#MD_linearGradient-4)"></rect>
                <rect x="10.15" y="3.55" width="0.7" height="0.15" fill="url(#MD_linearGradient-4)"></rect>
                <path d="M 9.3,5.5 L 11.7,5.5 L 11.7,7.5 L 9.3,7.5 Z" fill="url(#MD_linearGradient-2)" stroke="#5A3E20" stroke-width="0.08"></path>
                <path d="M 9.3,7.5 L 11.7,7.5 L 11.7,9.0 Q 11.7,10.0 10.5,10.4 Q 9.3,10.0 9.3,9.0 Z" fill="url(#MD_linearGradient-3)" stroke="#5A3E20" stroke-width="0.08"></path>
                <path d="M 9.85,7.05 Q 9.45,6.45 9.6,6.05 Q 9.9,6.45 9.95,6.9 Z" fill="url(#MD_linearGradient-4)"></path>
                <path d="M 11.15,7.05 Q 11.55,6.45 11.4,6.05 Q 11.1,6.45 11.05,6.9 Z" fill="url(#MD_linearGradient-4)"></path>
                <ellipse cx="10.5" cy="7.5" rx="0.65" ry="0.55" fill="url(#MD_linearGradient-4)"></ellipse>
                <ellipse cx="10.5" cy="7.95" rx="0.28" ry="0.2" fill="url(#MD_linearGradient-4)"></ellipse>
                <circle cx="10.3" cy="7.45" r="0.06" fill="#5A3E20"></circle>
                <circle cx="10.7" cy="7.45" r="0.06" fill="#5A3E20"></circle>
                <polygon points="10.5,6.15 10.56,6.34 10.73,6.34 10.59,6.45 10.65,6.62 10.5,6.51 10.35,6.62 10.41,6.45 10.27,6.34 10.44,6.34" fill="url(#MD_linearGradient-4)"></polygon>
                <path d="M 9.5,8.4 A 0.18,0.18 0 1 0 9.5,8.75 A 0.12,0.18 0 1 1 9.5,8.4 Z" fill="url(#MD_linearGradient-1)"></path>
                <circle cx="11.5" cy="8.575" r="0.14" fill="url(#MD_linearGradient-4)"></circle>
                <circle cx="11.4" cy="8.42" r="0.07" fill="url(#MD_linearGradient-2)"></circle>
                <circle cx="11.6" cy="8.42" r="0.07" fill="url(#MD_linearGradient-2)"></circle>
                <circle cx="11.4" cy="8.72" r="0.07" fill="url(#MD_linearGradient-2)"></circle>
                <circle cx="11.6" cy="8.72" r="0.07" fill="url(#MD_linearGradient-2)"></circle>
                <path d="M 8.85,8.7 L 9.0,9.4 L 8.95,9.5 L 8.85,9.4 L 8.85,9.1 Z" fill="url(#MD_linearGradient-4)"></path>
                <path d="M 12.15,8.7 L 12.0,9.4 L 12.05,9.5 L 12.15,9.4 L 12.15,9.1 Z" fill="url(#MD_linearGradient-4)"></path>
            </g>
        </g>
    </g>
</svg>