<?xml version="1.0" encoding="UTF-8"?>
<!--
  Flag: MD - Moldova
  Source: FlagKit by Bowtie (https://github.com/madebybowtie/FlagKit)
  License: MIT
-->
<svg width="21px" height="15px" viewBox="0 0 21 15" version="1.1" xmlns="http://www.w3.org/2000/svg" xmlns:xlink="http://www.w3.org/1999/xlink">
    <!-- Generator: sketchtool 46 (44423) - http://www.bohemiancoding.com/sketch -->
    <title>MD</title>
    <desc>Created with sketchtool.</desc>
    <defs>
        <linearGradient x1="50%" y1="0%" x2="50%" y2="100%" id="MD_linearGradient-1">
            <stop stop-color="#FFFFFF" offset="0%"></stop>
            <stop stop-color="#F0F0F0" offset="100%"></stop>
        </linearGradient>
        <linearGradient x1="50%" y1="0%" x2="50%" y2="100%" id="MD_linearGradient-2">
            <stop stop-color="#EB1C43" offset="0%"></stop>
            <stop stop-color="#CA1134" offset="100%"></stop>
        </linearGradient>
        <linearGradient x1="50%" y1="0%" x2="50%" y2="100%" id="MD_linearGradient-3">
            <stop stop-color="#115BCB" offset="0%"></stop>
            <stop stop-color="#094AAC" offset="100%"></stop>
        </linearGradient>
        <linearGradient x1="50%" y1="0%" x2="50%" y2="100%" id="MD_linearGradient-4">
            <stop stop-color="#FFD953" offset="0%"></stop>
            <stop stop-color="#FFD130" offset="100%"></stop>
        </linearGradient>
        <rect id="MD_path-5" x="7" y="0" width="7" height="15"></rect>
        <filter x="-10.7%" y="-5.0%" width="121.4%" height="110.0%" filterUnits="objectBoundingBox" id="MD_filter-6">
            <feMorphology radius="0.25" operator="dilate" in="SourceAlpha" result="shadowSpreadOuter1"></feMorphology>
            <feOffset dx="0" dy="0" in="shadowSpreadOuter1" result="shadowOffsetOuter1"></feOffset>
            <feColorMatrix values="0 0 0 0 0   0 0 0 0 0   0 0 0 0 0  0 0 0 0.06 0" type="matrix" in="shadowOffsetOuter1"></feColorMatrix>
        </filter>
    </defs>
    <g id="MD_Symbols" stroke="none" stroke-width="1" fill="none" fill-rule="evenodd">
        <g id="MD_MD">
            <rect id="MD_FlagBackground" fill="url(#MD_linearGradient-1)" x="0" y="0" width="21" height="15"></rect>
            <rect id="MD_Mask" fill="url(#MD_linearGradient-2)" x="10" y="0" width="11" height="15"></rect>
            <rect id="MD_Rectangle-2" fill="url(#MD_linearGradient-3)" x="0" y="0" width="7" height="15"></rect>
            <g id="MD_Rectangle-2-Copy">
                <use fill="black" fill-opacity="1" filter="url(#MD_filter-6)" xlink:href="#MD_path-5"></use>
                <use fill="url(#MD_linearGradient-4)" fill-rule="evenodd" xlink:href="#MD_path-5"></use>
            </g>
            <g id="MD_CoatOfArms">
                <path d="M9,5.5 L12,5.5 L12,8.5 Q12,10.5 10.5,11 Q9,10.5 9,8.5 Z" fill="url(#MD_linearGradient-4)" stroke="#8C5E2A" stroke-width="0.15"></path>
                <path d="M9.6,6.6 Q9.3,5.9 9.7,5.8 Q9.9,6 9.9,6.5 Z M11.4,6.6 Q11.7,5.9 11.3,5.8 Q11.1,6 11.1,6.5 Z" fill="#5A3E20"></path>
                <ellipse cx="10.5" cy="7.3" rx="0.85" ry="0.7" fill="#5A3E20"></ellipse>
                <ellipse cx="10.5" cy="8.15" rx="0.4" ry="0.3" fill="#5A3E20"></ellipse>
                <polygon points="10.5,3.7 10.7,4.3 11.3,4.3 10.8,4.65 11,5.25 10.5,4.9 10,5.25 10.2,4.65 9.7,4.3 10.3,4.3" fill="url(#MD_linearGradient-4)"></polygon>
            </g>
        </g>
    </g>
</svg>