<?xml version="1.0" encoding="UTF-8"?>
<!--
  Flag: TA - Tristan da Cunha
  Source: FlagKit by Bowtie (https://github.com/madebybowtie/FlagKit)
  License: MIT
-->
<svg width="21px" height="15px" viewBox="0 0 21 15" version="1.1" xmlns="http://www.w3.org/2000/svg" xmlns:xlink="http://www.w3.org/1999/xlink">
    <title>TA</title>
    <desc>British blue ensign defaced with the Tristan da Cunha coat of arms - shield with four albatrosses and a longboat, Naval Crown above.</desc>
    <defs>
        <linearGradient x1="50%" y1="0%" x2="50%" y2="100%" id="TA_linearGradient-1">
            <stop stop-color="#012169" offset="0%"></stop>
            <stop stop-color="#001A52" offset="100%"></stop>
        </linearGradient>
        <linearGradient x1="50%" y1="0%" x2="50%" y2="100%" id="TA_linearGradient-2">
            <stop stop-color="#FFFFFF" offset="0%"></stop>
            <stop stop-color="#F0F0F0" offset="100%"></stop>
        </linearGradient>
        <linearGradient x1="50%" y1="0%" x2="50%" y2="100%" id="TA_linearGradient-3">
            <stop stop-color="#C8102E" offset="0%"></stop>
            <stop stop-color="#A50924" offset="100%"></stop>
        </linearGradient>
        <linearGradient x1="50%" y1="0%" x2="50%" y2="100%" id="TA_linearGradient-4">
            <stop stop-color="#FFD133" offset="0%"></stop>
            <stop stop-color="#E5B520" offset="100%"></stop>
        </linearGradient>
        <linearGradient x1="50%" y1="0%" x2="50%" y2="100%" id="TA_linearGradient-5">
            <stop stop-color="#2E73B5" offset="0%"></stop>
            <stop stop-color="#1F5A99" offset="100%"></stop>
        </linearGradient>
        <clipPath id="TA_CantonClip">
            <rect x="0" y="0" width="10.5" height="7.5"></rect>
        </clipPath>
    </defs>
    <g id="TA_Symbols" stroke="none" stroke-width="1" fill="none" fill-rule="evenodd">
        <g id="TA_TA">
            <rect id="TA_FlagBackground" fill="url(#TA_linearGradient-1)" x="0" y="0" width="21" height="15"></rect>
            <g id="TA_UnionJack" clip-path="url(#TA_CantonClip)">
                <rect x="0" y="0" width="10.5" height="7.5" fill="url(#TA_linearGradient-1)"></rect>
                <line x1="0" y1="0" x2="10.5" y2="7.5" stroke="url(#TA_linearGradient-2)" stroke-width="1.4"></line>
                <line x1="10.5" y1="0" x2="0" y2="7.5" stroke="url(#TA_linearGradient-2)" stroke-width="1.4"></line>
                <line x1="0" y1="0" x2="10.5" y2="7.5" stroke="url(#TA_linearGradient-3)" stroke-width="0.45"></line>
                <line x1="10.5" y1="0" x2="0" y2="7.5" stroke="url(#TA_linearGradient-3)" stroke-width="0.45"></line>
                <rect x="0" y="3.05" width="10.5" height="1.4" fill="url(#TA_linearGradient-2)"></rect>
                <rect x="4.55" y="0" width="1.4" height="7.5" fill="url(#TA_linearGradient-2)"></rect>
                <rect x="0" y="3.55" width="10.5" height="0.4" fill="url(#TA_linearGradient-3)"></rect>
                <rect x="4.85" y="0" width="0.4" height="7.5" fill="url(#TA_linearGradient-3)"></rect>
            </g>
            <path id="TA_Shield" d="M 14.5,4.8 L 17.0,4.8 L 17.0,8.5 Q 17.0,10.2 15.75,10.8 Q 14.5,10.2 14.5,8.5 Z" fill="url(#TA_linearGradient-5)" stroke="url(#TA_linearGradient-4)" stroke-width="0.12"></path>
            <path id="TA_Alba1" d="M 14.95,5.4 Q 15.10,5.25 15.25,5.4 L 15.20,5.50 L 15.10,5.50 L 15.10,5.75 L 15.05,5.75 L 15.05,5.50 L 14.95,5.50 Z" fill="url(#TA_linearGradient-2)"></path>
            <path id="TA_Alba2" d="M 16.25,5.4 Q 16.40,5.25 16.55,5.4 L 16.50,5.50 L 16.40,5.50 L 16.40,5.75 L 16.35,5.75 L 16.35,5.50 L 16.25,5.50 Z" fill="url(#TA_linearGradient-2)"></path>
            <path id="TA_Alba3" d="M 14.95,6.9 Q 15.10,6.75 15.25,6.9 L 15.20,7.00 L 15.10,7.00 L 15.10,7.25 L 15.05,7.25 L 15.05,7.00 L 14.95,7.00 Z" fill="url(#TA_linearGradient-2)"></path>
            <path id="TA_Alba4" d="M 16.25,6.9 Q 16.40,6.75 16.55,6.9 L 16.50,7.00 L 16.40,7.00 L 16.40,7.25 L 16.35,7.00 L 16.35,7.00 L 16.25,7.00 Z" fill="url(#TA_linearGradient-2)"></path>
            <path id="TA_Boat" d="M 14.85,8.6 L 16.65,8.6 L 16.35,9.15 L 15.15,9.15 Z" fill="url(#TA_linearGradient-2)"></path>
            <rect id="TA_BoatMast" x="15.72" y="7.8" width="0.06" height="0.8" fill="url(#TA_linearGradient-2)"></rect>
            <polygon id="TA_BoatSail" points="15.78,7.9 16.30,8.5 15.78,8.5" fill="url(#TA_linearGradient-2)"></polygon>
            <rect id="TA_NavalCrownBand" x="14.95" y="4.0" width="1.6" height="0.4" fill="url(#TA_linearGradient-4)"></rect>
            <polygon id="TA_NavalCrownShips" points="14.95,4.0 15.05,3.6 15.30,3.7 15.45,3.5 15.45,4.0 M 15.55,4.0 L 15.55,3.5 L 15.85,3.7 L 16.05,3.5 L 16.05,4.0 M 16.15,4.0 L 16.25,3.6 L 16.45,3.7 L 16.55,3.5 L 16.55,4.0" fill="url(#TA_linearGradient-4)"></polygon>
        </g>
    </g>
</svg>
