<?xml version="1.0" encoding="UTF-8"?>
<!--
  Flag: US - United States
  Source: FlagHub (fork of FlagKit by Bowtie)
  Upstream: https://github.com/madebybowtie/FlagKit
  License: MIT
-->
<svg width="21px" height="15px" viewBox="0 0 21 15" version="1.1" xmlns="http://www.w3.org/2000/svg" xmlns:xlink="http://www.w3.org/1999/xlink">
    <!-- Generator: sketchtool 46 (44423) - http://www.bohemiancoding.com/sketch -->
    <title>US</title>
    <desc>Created with sketchtool.</desc>
    <defs>
        <linearGradient x1="50%" y1="0%" x2="50%" y2="100%" id="US_linearGradient-1">
            <stop stop-color="#FFFFFF" offset="0%"></stop>
            <stop stop-color="#F0F0F0" offset="100%"></stop>
        </linearGradient>
        <linearGradient x1="50%" y1="0%" x2="50%" y2="100%" id="US_linearGradient-2">
            <stop stop-color="#D02F44" offset="0%"></stop>
            <stop stop-color="#B12537" offset="100%"></stop>
        </linearGradient>
        <linearGradient x1="50%" y1="0%" x2="50%" y2="100%" id="US_linearGradient-3">
            <stop stop-color="#46467F" offset="0%"></stop>
            <stop stop-color="#3C3C6D" offset="100%"></stop>
        </linearGradient>
    </defs>
    <g id="US_Symbols" stroke="none" stroke-width="1" fill="none" fill-rule="evenodd">
        <g id="US_US">
            <rect id="US_FlagBackground" fill="url(#US_linearGradient-1)" x="0" y="0" width="21" height="15"></rect>
            <path d="M0,0 L21,0 L21,1.153846 L0,1.153846 L0,0 Z M0,2.307692 L21,2.307692 L21,3.461538 L0,3.461538 L0,2.307692 Z M0,4.615385 L21,4.615385 L21,5.769231 L0,5.769231 L0,4.615385 Z M0,6.923077 L21,6.923077 L21,8.076923 L0,8.076923 L0,6.923077 Z M0,9.230769 L21,9.230769 L21,10.384615 L0,10.384615 L0,9.230769 Z M0,11.538462 L21,11.538462 L21,12.692308 L0,12.692308 L0,11.538462 Z M0,13.846154 L21,13.846154 L21,15 L0,15 L0,13.846154 Z" id="US_Rectangle-511" fill="url(#US_linearGradient-2)"></path>
            <rect id="US_Rectangle-511" fill="url(#US_linearGradient-3)" x="0" y="0" width="9" height="8.076923"></rect>
            <polygon points="0.7500,0.0887 0.8308,0.3375 1.0924,0.3375 0.8808,0.4912 0.9616,0.7400 0.7500,0.5862 0.5384,0.7400 0.6192,0.4912 0.4076,0.3375 0.6692,0.3375" fill="url(#US_linearGradient-1)"></polygon>
            <polygon points="2.2500,0.0887 2.3308,0.3375 2.5924,0.3375 2.3808,0.4912 2.4616,0.7400 2.2500,0.5862 2.0384,0.7400 2.1192,0.4912 1.9076,0.3375 2.1692,0.3375" fill="url(#US_linearGradient-1)"></polygon>
            <polygon points="3.7500,0.0887 3.8308,0.3375 4.0924,0.3375 3.8808,0.4912 3.9616,0.7400 3.7500,0.5862 3.5384,0.7400 3.6192,0.4912 3.4076,0.3375 3.6692,0.3375" fill="url(#US_linearGradient-1)"></polygon>
            <polygon points="5.2500,0.0887 5.3308,0.3375 5.5924,0.3375 5.3808,0.4912 5.4616,0.7400 5.2500,0.5862 5.0384,0.7400 5.1192,0.4912 4.9076,0.3375 5.1692,0.3375" fill="url(#US_linearGradient-1)"></polygon>
            <polygon points="6.7500,0.0887 6.8308,0.3375 7.0924,0.3375 6.8808,0.4912 6.9616,0.7400 6.7500,0.5862 6.5384,0.7400 6.6192,0.4912 6.4076,0.3375 6.6692,0.3375" fill="url(#US_linearGradient-1)"></polygon>
            <polygon points="8.2500,0.0887 8.3308,0.3375 8.5924,0.3375 8.3808,0.4912 8.4616,0.7400 8.2500,0.5862 8.0384,0.7400 8.1192,0.4912 7.9076,0.3375 8.1692,0.3375" fill="url(#US_linearGradient-1)"></polygon>
            <polygon points="1.5000,0.9862 1.5808,1.2349 1.8424,1.2349 1.6308,1.3886 1.7116,1.6374 1.5000,1.4837 1.2884,1.6374 1.3692,1.3886 1.1576,1.2349 1.4192,1.2349" fill="url(#US_linearGradient-1)"></polygon>
            <polygon points="3.0000,0.9862 3.0808,1.2349 3.3424,1.2349 3.1308,1.3886 3.2116,1.6374 3.0000,1.4837 2.7884,1.6374 2.8692,1.3886 2.6576,1.2349 2.9192,1.2349" fill="url(#US_linearGradient-1)"></polygon>
            <polygon points="4.5000,0.9862 4.5808,1.2349 4.8424,1.2349 4.6308,1.3886 4.7116,1.6374 4.5000,1.4837 4.2884,1.6374 4.3692,1.3886 4.1576,1.2349 4.4192,1.2349" fill="url(#US_linearGradient-1)"></polygon>
            <polygon points="6.0000,0.9862 6.0808,1.2349 6.3424,1.2349 6.1308,1.3886 6.2116,1.6374 6.0000,1.4837 5.7884,1.6374 5.8692,1.3886 5.6576,1.2349 5.9192,1.2349" fill="url(#US_linearGradient-1)"></polygon>
            <polygon points="7.5000,0.9862 7.5808,1.2349 7.8424,1.2349 7.6308,1.3886 7.7116,1.6374 7.5000,1.4837 7.2884,1.6374 7.3692,1.3886 7.1576,1.2349 7.4192,1.2349" fill="url(#US_linearGradient-1)"></polygon>
            <polygon points="0.7500,1.8836 0.8308,2.1323 1.0924,2.1323 0.8808,2.2861 0.9616,2.5348 0.7500,2.3811 0.5384,2.5348 0.6192,2.2861 0.4076,2.1323 0.6692,2.1323" fill="url(#US_linearGradient-1)"></polygon>
            <polygon points="2.2500,1.8836 2.3308,2.1323 2.5924,2.1323 2.3808,2.2861 2.4616,2.5348 2.2500,2.3811 2.0384,2.5348 2.1192,2.2861 1.9076,2.1323 2.1692,2.1323" fill="url(#US_linearGradient-1)"></polygon>
            <polygon points="3.7500,1.8836 3.8308,2.1323 4.0924,2.1323 3.8808,2.2861 3.9616,2.5348 3.7500,2.3811 3.5384,2.5348 3.6192,2.2861 3.4076,2.1323 3.6692,2.1323" fill="url(#US_linearGradient-1)"></polygon>
            <polygon points="5.2500,1.8836 5.3308,2.1323 5.5924,2.1323 5.3808,2.2861 5.4616,2.5348 5.2500,2.3811 5.0384,2.5348 5.1192,2.2861 4.9076,2.1323 5.1692,2.1323" fill="url(#US_linearGradient-1)"></polygon>
            <polygon points="6.7500,1.8836 6.8308,2.1323 7.0924,2.1323 6.8808,2.2861 6.9616,2.5348 6.7500,2.3811 6.5384,2.5348 6.6192,2.2861 6.4076,2.1323 6.6692,2.1323" fill="url(#US_linearGradient-1)"></polygon>
            <polygon points="8.2500,1.8836 8.3308,2.1323 8.5924,2.1323 8.3808,2.2861 8.4616,2.5348 8.2500,2.3811 8.0384,2.5348 8.1192,2.2861 7.9076,2.1323 8.1692,2.1323" fill="url(#US_linearGradient-1)"></polygon>
            <polygon points="1.5000,2.7810 1.5808,3.0298 1.8424,3.0298 1.6308,3.1835 1.7116,3.4323 1.5000,3.2785 1.2884,3.4323 1.3692,3.1835 1.1576,3.0298 1.4192,3.0298" fill="url(#US_linearGradient-1)"></polygon>
            <polygon points="3.0000,2.7810 3.0808,3.0298 3.3424,3.0298 3.1308,3.1835 3.2116,3.4323 3.0000,3.2785 2.7884,3.4323 2.8692,3.1835 2.6576,3.0298 2.9192,3.0298" fill="url(#US_linearGradient-1)"></polygon>
            <polygon points="4.5000,2.7810 4.5808,3.0298 4.8424,3.0298 4.6308,3.1835 4.7116,3.4323 4.5000,3.2785 4.2884,3.4323 4.3692,3.1835 4.1576,3.0298 4.4192,3.0298" fill="url(#US_linearGradient-1)"></polygon>
            <polygon points="6.0000,2.7810 6.0808,3.0298 6.3424,3.0298 6.1308,3.1835 6.2116,3.4323 6.0000,3.2785 5.7884,3.4323 5.8692,3.1835 5.6576,3.0298 5.9192,3.0298" fill="url(#US_linearGradient-1)"></polygon>
            <polygon points="7.5000,2.7810 7.5808,3.0298 7.8424,3.0298 7.6308,3.1835 7.7116,3.4323 7.5000,3.2785 7.2884,3.4323 7.3692,3.1835 7.1576,3.0298 7.4192,3.0298" fill="url(#US_linearGradient-1)"></polygon>
            <polygon points="0.7500,3.6785 0.8308,3.9272 1.0924,3.9272 0.8808,4.0810 0.9616,4.3297 0.7500,4.1760 0.5384,4.3297 0.6192,4.0810 0.4076,3.9272 0.6692,3.9272" fill="url(#US_linearGradient-1)"></polygon>
            <polygon points="2.2500,3.6785 2.3308,3.9272 2.5924,3.9272 2.3808,4.0810 2.4616,4.3297 2.2500,4.1760 2.0384,4.3297 2.1192,4.0810 1.9076,3.9272 2.1692,3.9272" fill="url(#US_linearGradient-1)"></polygon>
            <polygon points="3.7500,3.6785 3.8308,3.9272 4.0924,3.9272 3.8808,4.0810 3.9616,4.3297 3.7500,4.1760 3.5384,4.3297 3.6192,4.0810 3.4076,3.9272 3.6692,3.9272" fill="url(#US_linearGradient-1)"></polygon>
            <polygon points="5.2500,3.6785 5.3308,3.9272 5.5924,3.9272 5.3808,4.0810 5.4616,4.3297 5.2500,4.1760 5.0384,4.3297 5.1192,4.0810 4.9076,3.9272 5.1692,3.9272" fill="url(#US_linearGradient-1)"></polygon>
            <polygon points="6.7500,3.6785 6.8308,3.9272 7.0924,3.9272 6.8808,4.0810 6.9616,4.3297 6.7500,4.1760 6.5384,4.3297 6.6192,4.0810 6.4076,3.9272 6.6692,3.9272" fill="url(#US_linearGradient-1)"></polygon>
            <polygon points="8.2500,3.6785 8.3308,3.9272 8.5924,3.9272 8.3808,4.0810 8.4616,4.3297 8.2500,4.1760 8.0384,4.3297 8.1192,4.0810 7.9076,3.9272 8.1692,3.9272" fill="url(#US_linearGradient-1)"></polygon>
            <polygon points="1.5000,4.5759 1.5808,4.8247 1.8424,4.8247 1.6308,4.9784 1.7116,5.2271 1.5000,5.0734 1.2884,5.2271 1.3692,4.9784 1.1576,4.8247 1.4192,4.8247" fill="url(#US_linearGradient-1)"></polygon>
            <polygon points="3.0000,4.5759 3.0808,4.8247 3.3424,4.8247 3.1308,4.9784 3.2116,5.2271 3.0000,5.0734 2.7884,5.2271 2.8692,4.9784 2.6576,4.8247 2.9192,4.8247" fill="url(#US_linearGradient-1)"></polygon>
            <polygon points="4.5000,4.5759 4.5808,4.8247 4.8424,4.8247 4.6308,4.9784 4.7116,5.2271 4.5000,5.0734 4.2884,5.2271 4.3692,4.9784 4.1576,4.8247 4.4192,4.8247" fill="url(#US_linearGradient-1)"></polygon>
            <polygon points="6.0000,4.5759 6.0808,4.8247 6.3424,4.8247 6.1308,4.9784 6.2116,5.2271 6.0000,5.0734 5.7884,5.2271 5.8692,4.9784 5.6576,4.8247 5.9192,4.8247" fill="url(#US_linearGradient-1)"></polygon>
            <polygon points="7.5000,4.5759 7.5808,4.8247 7.8424,4.8247 7.6308,4.9784 7.7116,5.2271 7.5000,5.0734 7.2884,5.2271 7.3692,4.9784 7.1576,4.8247 7.4192,4.8247" fill="url(#US_linearGradient-1)"></polygon>
            <polygon points="0.7500,5.4733 0.8308,5.7221 1.0924,5.7221 0.8808,5.8758 0.9616,6.1246 0.7500,5.9708 0.5384,6.1246 0.6192,5.8758 0.4076,5.7221 0.6692,5.7221" fill="url(#US_linearGradient-1)"></polygon>
            <polygon points="2.2500,5.4733 2.3308,5.7221 2.5924,5.7221 2.3808,5.8758 2.4616,6.1246 2.2500,5.9708 2.0384,6.1246 2.1192,5.8758 1.9076,5.7221 2.1692,5.7221" fill="url(#US_linearGradient-1)"></polygon>
            <polygon points="3.7500,5.4733 3.8308,5.7221 4.0924,5.7221 3.8808,5.8758 3.9616,6.1246 3.7500,5.9708 3.5384,6.1246 3.6192,5.8758 3.4076,5.7221 3.6692,5.7221" fill="url(#US_linearGradient-1)"></polygon>
            <polygon points="5.2500,5.4733 5.3308,5.7221 5.5924,5.7221 5.3808,5.8758 5.4616,6.1246 5.2500,5.9708 5.0384,6.1246 5.1192,5.8758 4.9076,5.7221 5.1692,5.7221" fill="url(#US_linearGradient-1)"></polygon>
            <polygon points="6.7500,5.4733 6.8308,5.7221 7.0924,5.7221 6.8808,5.8758 6.9616,6.1246 6.7500,5.9708 6.5384,6.1246 6.6192,5.8758 6.4076,5.7221 6.6692,5.7221" fill="url(#US_linearGradient-1)"></polygon>
            <polygon points="8.2500,5.4733 8.3308,5.7221 8.5924,5.7221 8.3808,5.8758 8.4616,6.1246 8.2500,5.9708 8.0384,6.1246 8.1192,5.8758 7.9076,5.7221 8.1692,5.7221" fill="url(#US_linearGradient-1)"></polygon>
            <polygon points="1.5000,6.3708 1.5808,6.6195 1.8424,6.6195 1.6308,6.7733 1.7116,7.0220 1.5000,6.8683 1.2884,7.0220 1.3692,6.7733 1.1576,6.6195 1.4192,6.6195" fill="url(#US_linearGradient-1)"></polygon>
            <polygon points="3.0000,6.3708 3.0808,6.6195 3.3424,6.6195 3.1308,6.7733 3.2116,7.0220 3.0000,6.8683 2.7884,7.0220 2.8692,6.7733 2.6576,6.6195 2.9192,6.6195" fill="url(#US_linearGradient-1)"></polygon>
            <polygon points="4.5000,6.3708 4.5808,6.6195 4.8424,6.6195 4.6308,6.7733 4.7116,7.0220 4.5000,6.8683 4.2884,7.0220 4.3692,6.7733 4.1576,6.6195 4.4192,6.6195" fill="url(#US_linearGradient-1)"></polygon>
            <polygon points="6.0000,6.3708 6.0808,6.6195 6.3424,6.6195 6.1308,6.7733 6.2116,7.0220 6.0000,6.8683 5.7884,7.0220 5.8692,6.7733 5.6576,6.6195 5.9192,6.6195" fill="url(#US_linearGradient-1)"></polygon>
            <polygon points="7.5000,6.3708 7.5808,6.6195 7.8424,6.6195 7.6308,6.7733 7.7116,7.0220 7.5000,6.8683 7.2884,7.0220 7.3692,6.7733 7.1576,6.6195 7.4192,6.6195" fill="url(#US_linearGradient-1)"></polygon>
            <polygon points="0.7500,7.2682 0.8308,7.5170 1.0924,7.5170 0.8808,7.6707 0.9616,7.9195 0.7500,7.7657 0.5384,7.9195 0.6192,7.6707 0.4076,7.5170 0.6692,7.5170" fill="url(#US_linearGradient-1)"></polygon>
            <polygon points="2.2500,7.2682 2.3308,7.5170 2.5924,7.5170 2.3808,7.6707 2.4616,7.9195 2.2500,7.7657 2.0384,7.9195 2.1192,7.6707 1.9076,7.5170 2.1692,7.5170" fill="url(#US_linearGradient-1)"></polygon>
            <polygon points="3.7500,7.2682 3.8308,7.5170 4.0924,7.5170 3.8808,7.6707 3.9616,7.9195 3.7500,7.7657 3.5384,7.9195 3.6192,7.6707 3.4076,7.5170 3.6692,7.5170" fill="url(#US_linearGradient-1)"></polygon>
            <polygon points="5.2500,7.2682 5.3308,7.5170 5.5924,7.5170 5.3808,7.6707 5.4616,7.9195 5.2500,7.7657 5.0384,7.9195 5.1192,7.6707 4.9076,7.5170 5.1692,7.5170" fill="url(#US_linearGradient-1)"></polygon>
            <polygon points="6.7500,7.2682 6.8308,7.5170 7.0924,7.5170 6.8808,7.6707 6.9616,7.9195 6.7500,7.7657 6.5384,7.9195 6.6192,7.6707 6.4076,7.5170 6.6692,7.5170" fill="url(#US_linearGradient-1)"></polygon>
            <polygon points="8.2500,7.2682 8.3308,7.5170 8.5924,7.5170 8.3808,7.6707 8.4616,7.9195 8.2500,7.7657 8.0384,7.9195 8.1192,7.6707 7.9076,7.5170 8.1692,7.5170" fill="url(#US_linearGradient-1)"></polygon>
        </g>
    </g>
</svg>