<?xml version="1.0" encoding="UTF-8"?>
<!--
  Flag: ZW - Zimbabwe
  Source: FlagKit by Bowtie (https://github.com/madebybowtie/FlagKit)
  License: MIT
-->
<svg width="21px" height="15px" viewBox="0 0 21 15" version="1.1" xmlns="http://www.w3.org/2000/svg" xmlns:xlink="http://www.w3.org/1999/xlink">
    <!-- Generator: sketchtool 46 (44423) - http://www.bohemiancoding.com/sketch -->
    <title>ZW</title>
    <desc>Created with sketchtool.</desc>
    <defs>
        <linearGradient x1="50%" y1="0%" x2="50%" y2="100%" id="ZW_linearGradient-1">
            <stop stop-color="#FFFFFF" offset="0%"></stop>
            <stop stop-color="#F0F0F0" offset="100%"></stop>
        </linearGradient>
        <linearGradient x1="50%" y1="0%" x2="50%" y2="100%" id="ZW_linearGradient-2">
            <stop stop-color="#369D0C" offset="0%"></stop>
            <stop stop-color="#319209" offset="100%"></stop>
        </linearGradient>
        <linearGradient x1="50%" y1="0%" x2="50%" y2="100%" id="ZW_linearGradient-3">
            <stop stop-color="#262626" offset="0%"></stop>
            <stop stop-color="#0D0D0D" offset="100%"></stop>
        </linearGradient>
        <linearGradient x1="50%" y1="0%" x2="50%" y2="100%" id="ZW_linearGradient-4">
            <stop stop-color="#FFD40E" offset="0%"></stop>
            <stop stop-color="#FFD201" offset="100%"></stop>
        </linearGradient>
        <linearGradient x1="50%" y1="0%" x2="50%" y2="100%" id="ZW_linearGradient-5">
            <stop stop-color="#F12F1F" offset="0%"></stop>
            <stop stop-color="#DE2010" offset="100%"></stop>
        </linearGradient>
    </defs>
    <g id="ZW_Symbols" stroke="none" stroke-width="1" fill="none" fill-rule="evenodd">
        <g id="ZW_ZW">
            <rect id="ZW_FlagBackground" fill="url(#ZW_linearGradient-1)" x="0" y="0" width="21" height="15"></rect>
            <rect id="ZW_Rectangle-2" fill="url(#ZW_linearGradient-2)" x="0" y="0" width="21" height="2"></rect>
            <rect id="ZW_Rectangle-2" fill="url(#ZW_linearGradient-2)" x="0" y="13" width="21" height="2"></rect>
            <rect id="ZW_Rectangle-2" fill="url(#ZW_linearGradient-2)" x="0" y="4" width="21" height="2"></rect>
            <rect id="ZW_Rectangle-2" fill="url(#ZW_linearGradient-2)" x="0" y="9" width="21" height="2"></rect>
            <rect id="ZW_Rectangle-2" fill="url(#ZW_linearGradient-3)" x="0" y="6" width="21" height="3"></rect>
            <rect id="ZW_Rectangle-2" fill="url(#ZW_linearGradient-4)" x="0" y="2" width="21" height="2"></rect>
            <rect id="ZW_Rectangle-2" fill="url(#ZW_linearGradient-4)" x="0" y="11" width="21" height="2"></rect>
            <polygon id="ZW_Rectangle-83" fill="url(#ZW_linearGradient-3)" fill-rule="nonzero" points="-1 15 -1 0 0 0 10 7.5 0 15"></polygon>
            <polygon id="ZW_Rectangle-83" fill="url(#ZW_linearGradient-1)" fill-rule="nonzero" points="0 13.75 8.33333333 7.5 6.66133815e-16 1.25"></polygon>
            <polygon id="ZW_Star-8" fill="url(#ZW_linearGradient-5)" points="3 8.47500004 1.53053687 9.52254249 2.07271986 7.80129158 0.622358709 6.72745751 2.42690936 6.7112084 3 5 3.57309064 6.7112084 5.37764129 6.72745751 3.92728014 7.80129158 4.46946313 9.52254249"></polygon>
            <g id="ZW_Bird" fill="#8C5E2A">
                <path d="M 3.10,6.10 Q 3.45,6.20 3.50,6.55 Q 3.55,6.85 3.35,7.05 Q 3.55,7.20 3.65,7.55 Q 3.70,7.95 3.55,8.30 Q 3.45,8.45 3.30,8.50 L 2.70,8.50 Q 2.55,8.45 2.45,8.30 Q 2.30,7.95 2.35,7.55 Q 2.45,7.20 2.65,7.05 Q 2.45,6.85 2.50,6.55 Q 2.55,6.20 2.90,6.10 Q 3.00,6.05 3.10,6.10 Z"></path>
                <path d="M 2.55,6.40 Q 2.30,6.40 2.15,6.55 Q 2.10,6.65 2.20,6.70 L 2.45,6.65 Q 2.55,6.65 2.65,6.55 Z"></path>
                <circle cx="2.80" cy="6.45" r="0.07" fill="#3A2410"></circle>
                <path d="M 2.65,7.40 Q 2.85,7.55 3.05,7.50 Q 3.25,7.45 3.35,7.30" fill="none" stroke="#5A3E20" stroke-width="0.08"></path>
                <path d="M 2.75,7.85 Q 2.95,7.95 3.15,7.90 Q 3.30,7.85 3.40,7.75" fill="none" stroke="#5A3E20" stroke-width="0.08"></path>
                <path d="M 3.55,7.55 L 4.05,7.30 L 3.85,7.65 L 4.20,7.55 L 3.95,7.90 L 4.15,7.95 L 3.85,8.15 L 4.00,8.30 L 3.65,8.30 L 3.50,8.10 Z"></path>
                <path d="M 3.65,7.55 L 3.95,7.45 M 3.80,7.75 L 4.05,7.80 M 3.75,7.95 L 3.95,8.10" fill="none" stroke="#5A3E20" stroke-width="0.05"></path>
                <rect x="2.30" y="8.50" width="1.40" height="0.10" fill="#5A3E20"></rect>
                <rect x="2.40" y="8.60" width="1.20" height="0.20"></rect>
                <rect x="2.30" y="8.80" width="1.40" height="0.08" fill="#5A3E20"></rect>
                <rect x="2.40" y="8.88" width="1.20" height="0.15"></rect>
                <rect x="2.80" y="8.40" width="0.10" height="0.15"></rect>
                <rect x="3.10" y="8.40" width="0.10" height="0.15"></rect>
            </g>
        </g>
    </g>
</svg>